<svg width="34" height="34" viewBox="0 0 34 34" fill="none" xmlns="http://www.w3.org/2000/svg">
<path d="M19.8333 23.1767C19.8295 23.3172 19.8557 23.4569 19.9104 23.5864C19.965 23.7159 20.0468 23.8322 20.1501 23.9275C20.2534 24.0228 20.376 24.0949 20.5095 24.1389C20.643 24.1828 20.7844 24.1977 20.9242 24.1825C22.2771 24.1825 22.4612 23.2758 22.4612 22.2558V22.0717H21.5687C20.4496 22.0717 19.8333 22.3833 19.8333 23.1767Z" fill="white"/>
<path d="M15.1513 6.375C12.7304 6.3736 10.3635 7.0901 8.34989 8.43388C6.33626 9.77766 4.76632 11.6884 3.83861 13.9244C2.9109 16.1604 2.66708 18.6214 3.13799 20.996C3.6089 23.3706 4.77338 25.5522 6.48419 27.265C8.19499 28.9778 10.3753 30.1448 12.7493 30.6184C15.1234 31.0921 17.5846 30.8511 19.8217 29.926C22.0588 29.0009 23.9713 27.4332 25.3174 25.4211C26.6635 23.409 27.3828 21.0429 27.3842 18.6221C27.386 17.0144 27.071 15.4222 26.4571 13.9364C25.8431 12.4506 24.9424 11.1004 23.8063 9.96295C22.6701 8.82552 21.321 7.92318 19.8359 7.30753C18.3508 6.69188 16.7589 6.375 15.1513 6.375ZM12.0417 24.7917H7.1471V17.1063H8.1671V23.9346H12.1904L12.0417 24.7917ZM16.6317 24.7917V23.9488C16.488 24.2841 16.2385 24.5633 15.9213 24.7436C15.6042 24.9239 15.2367 24.9955 14.875 24.9475C13.9258 24.9475 13.0192 24.4729 13.0192 22.8863V19.1958H13.9825V22.6667C13.9825 23.375 14.2092 24.0833 15.1442 24.0833C16.0792 24.0833 16.5608 23.5167 16.5608 22.1142V19.1958H17.5313V24.8129L16.6317 24.7917ZM22.5675 24.7917C22.5071 24.5604 22.4761 24.3224 22.4754 24.0833C22.3032 24.3824 22.0469 24.6244 21.7384 24.7793C21.4299 24.9342 21.0828 24.9951 20.74 24.9546C20.4994 24.9819 20.2558 24.9574 20.0254 24.883C19.7951 24.8085 19.5833 24.6856 19.4042 24.5227C19.2252 24.3597 19.083 24.1604 18.9872 23.938C18.8914 23.7157 18.8442 23.4754 18.8488 23.2333C18.8488 21.9796 19.8333 21.4058 21.505 21.4058H22.4613V20.9313C22.4613 20.4354 22.3054 19.8333 21.25 19.8333C20.315 19.8333 20.1521 20.2938 20.0529 20.7329H19.125C19.2029 19.9608 19.6846 19.0683 21.2996 19.0683C22.6667 19.0683 23.4246 19.635 23.4246 20.91V23.5875C23.4216 23.9902 23.4477 24.3927 23.5025 24.7917H22.5675ZM20.3717 17.2408C19.6516 17.2408 18.9477 17.0273 18.3489 16.6272C17.7502 16.2272 17.2836 15.6586 17.008 14.9933C16.7324 14.328 16.6603 13.596 16.8008 12.8897C16.9413 12.1835 17.288 11.5347 17.7972 11.0255C18.3064 10.5164 18.9551 10.1696 19.6614 10.0291C20.3676 9.88864 21.0997 9.96075 21.765 10.2363C22.4302 10.5119 22.9989 10.9785 23.3989 11.5773C23.799 12.176 24.0125 12.8799 24.0125 13.6C24.0106 14.565 23.6265 15.49 22.9441 16.1724C22.2617 16.8548 21.3367 17.239 20.3717 17.2408Z" fill="white"/>
<path d="M30.0941 8.95928C31.4274 7.62597 31.4274 5.46424 30.0941 4.13092C28.7608 2.79761 26.5991 2.79761 25.2657 4.13092C23.9324 5.46424 23.9324 7.62597 25.2657 8.95929C26.5991 10.2926 28.7608 10.2926 30.0941 8.95928Z" fill="white"/>
</svg>
