<svg width="24" height="24" viewBox="0 0 24 24" fill="none" xmlns="http://www.w3.org/2000/svg">
<path d="M13.7399 4.23003C13.1396 3.51451 12.5681 2.77525 12.0269 2.01403C12.0239 2.00969 12.0199 2.00616 12.0152 2.00372C12.0105 2.00127 12.0052 2 11.9999 2C11.9946 2 11.9894 2.00127 11.9847 2.00372C11.98 2.00616 11.976 2.00969 11.9729 2.01403C11.4318 2.77559 10.8603 3.51519 10.2599 4.23103C3.04794 13.418 11.3979 19.616 11.3979 19.616L11.4649 19.663C11.5289 20.622 11.6859 22 11.6859 22H12.3139C12.3139 22 12.4709 20.628 12.5339 19.67L12.6029 19.616C12.6029 19.616 20.9519 13.418 13.7409 4.23103M11.9999 19.482C11.9999 19.482 11.6259 19.162 11.5249 19.002L11.5239 18.986L11.9769 8.98403C11.9781 8.97862 11.981 8.97377 11.9853 8.97029C11.9896 8.9668 11.9949 8.9649 12.0004 8.9649C12.006 8.9649 12.0113 8.9668 12.0156 8.97029C12.0199 8.97377 12.0228 8.97862 12.0239 8.98403L12.4759 18.986V19.003C12.3749 19.163 11.9999 19.482 11.9999 19.482Z" fill="white"/>
</svg>
