<svg width="24" height="24" viewBox="0 0 24 24" fill="none" xmlns="http://www.w3.org/2000/svg">
<g clip-path="url(#clip0_49_79)">
<path d="M11.9998 0.923523C5.44296 0.923523 0 5.33712 0 10.9344C0 14.2565 1.92048 17.1583 4.8504 18.971C4.65216 20.0558 3.69384 20.9933 2.78184 21.959C2.68832 22.0583 2.62769 22.184 2.60823 22.319C2.58877 22.454 2.61142 22.5917 2.6731 22.7134C2.73477 22.835 2.83247 22.9347 2.95286 22.9987C3.07326 23.0628 3.21049 23.0882 3.34584 23.0714C5.49504 22.8029 7.47336 21.6449 8.9388 20.615C9.94411 20.836 10.9705 20.947 11.9998 20.9462C18.5566 20.9462 24 16.5319 24 10.9344C24 5.33688 18.5566 0.923523 11.9998 0.923523ZM11.9998 2.24904C17.9657 2.24904 22.6742 6.20592 22.6742 10.9346C22.6742 15.6634 17.9657 19.6205 12 19.6205C11.4387 19.6204 10.8779 19.5845 10.3212 19.513C10.261 19.505 10.201 19.4965 10.1412 19.4875C10.0555 19.475 9.96912 19.4633 9.88392 19.4491C9.82024 19.4382 9.75672 19.4269 9.69336 19.415C9.62104 19.4022 9.54888 19.389 9.47688 19.3752C9.3984 19.3596 9.3204 19.3423 9.2424 19.3255C9.17856 19.3116 9.11424 19.2984 9.05088 19.2835C8.91617 19.2521 8.78199 19.2184 8.6484 19.1825C8.42572 19.342 8.20025 19.4975 7.97208 19.649L7.968 19.6517C7.77384 19.7795 7.57774 19.9043 7.37976 20.0261C6.72456 20.4331 6.01584 20.827 5.27616 21.1397C5.60688 20.6866 5.8896 20.1876 6.05664 19.6303C6.08128 19.5465 6.1032 19.4613 6.1224 19.3747C6.12944 19.3438 6.13616 19.3129 6.14256 19.2818C6.15712 19.209 6.16952 19.1354 6.17976 19.0608C6.18744 19.0056 6.19224 18.9492 6.19752 18.8928C6.20232 18.8378 6.20856 18.7836 6.21096 18.7272C6.21624 18.606 6.21648 18.4824 6.2088 18.3554C6.20655 18.3089 6.19948 18.2627 6.18768 18.2177L6.18648 18.2172L6.17928 18.2131C6.02024 18.1279 5.86331 18.0387 5.70864 17.9458C5.65328 17.9125 5.5984 17.8786 5.544 17.8442C2.9712 16.2461 1.326 13.7266 1.326 10.9346C1.326 6.20592 6.03384 2.24904 11.9998 2.24904ZM11.5085 2.76864C11.4254 2.76936 11.3419 2.77344 11.2584 2.77632C11.2697 2.80512 11.2709 2.83992 11.2471 2.8908C11.574 2.95992 11.8918 2.75568 12.2254 2.8476C12.522 2.9112 12.8724 3.00072 13.0627 3.2232C13.1808 3.27912 12.6298 3.0444 12.7459 3.29736C12.8782 3.56784 13.2456 3.53616 13.481 3.4008C13.794 3.3576 13.5322 3.67416 13.7446 3.75408C13.5384 3.77424 13.2226 3.92736 12.9466 3.94248C12.697 3.93744 12.7435 4.16184 12.9662 4.14912C13.218 4.20864 13.5806 4.0296 13.669 4.3548C13.7085 4.36115 13.7449 4.37984 13.7732 4.40818C13.8014 4.43652 13.82 4.47307 13.8262 4.51259C13.8324 4.55211 13.8259 4.59259 13.8077 4.62822C13.7895 4.66385 13.7605 4.69281 13.7249 4.71096C13.8216 4.84296 14.0071 4.95504 13.9078 5.09112C13.7806 5.3328 13.4849 5.28984 13.2094 5.33136C12.9526 5.34984 12.6694 5.14656 12.4298 5.32896C12.149 5.4936 12.131 5.85096 11.8435 6.00336C11.6347 6.32616 11.7696 6.49296 11.8798 6.59136C12.0629 6.65424 12.4824 6.61728 12.6934 6.45888C12.7145 6.3276 12.6614 6.17088 12.6422 6.07872C12.6967 6.12192 12.7126 6.15144 12.7116 6.16992C12.7174 6.2316 12.8194 6.27792 12.8302 6.28896C12.9646 6.3672 12.8153 6.60792 12.8078 6.66576C12.5424 6.64176 12.2597 6.68136 11.9856 6.70008C12.0091 6.82176 11.694 6.93144 11.7072 6.9384C11.4204 6.8868 11.2874 6.9972 11.0964 7.1304C11.083 7.13568 10.9291 7.1784 10.9291 7.1784C10.9466 7.1976 10.8778 7.2852 10.9063 7.28208C11.2694 7.24296 11.3035 7.44216 11.291 7.62384C11.1379 7.83672 10.4861 7.50384 10.607 7.95696C10.5533 8.17656 10.423 8.53464 10.8223 8.49864H10.8228C10.8228 8.49864 11.0335 8.44992 11.0486 8.44992C11.064 8.44992 11.5318 8.2728 11.5318 8.2728L11.5452 8.27184C11.5486 8.24376 11.5668 8.20584 11.6076 8.15184C11.7158 7.99944 11.9244 7.86216 12.1337 7.86264C12.0329 7.97064 12.2383 8.19864 12.1927 8.28048L12.3878 8.2956C12.4356 8.256 12.4394 8.22744 12.4687 8.18904C12.4994 8.1552 12.3938 7.96896 12.4262 7.956C12.4308 7.95408 12.4382 7.9548 12.4495 7.96104C12.5858 8.02344 12.9902 8.2524 12.6307 8.2764C12.6379 8.52504 12.6744 8.4192 12.8866 8.47992C13.007 8.47416 13.0555 8.18352 13.1832 8.16312C13.2037 8.16023 13.2245 8.1634 13.2432 8.17224C13.2931 8.232 13.3524 8.30208 13.4179 8.36808C13.5067 8.43144 13.6483 8.4168 13.7566 8.33136C13.813 8.25192 13.7026 8.08608 13.7182 8.09112C13.7647 8.15304 13.8826 8.2932 13.8938 8.35152C14.0731 8.48808 14.3035 8.45496 14.4744 8.53896C14.6292 8.49552 14.8433 8.53848 14.6686 8.70048C14.4024 8.73744 14.1055 8.78112 13.8415 8.69328C13.6217 8.59344 13.3572 8.646 13.2852 8.86416C13.0802 8.77632 12.8323 8.69616 12.6187 8.59896C11.9827 8.2776 11.359 8.39352 10.7707 8.54784L10.8223 8.49864C10.6874 8.64624 10.4537 8.75736 10.4102 8.99064C10.2226 9.18216 9.93384 9.26856 9.81048 9.53376C9.5412 9.74424 9.73224 10.037 9.6552 10.296C9.52464 10.4081 9.43248 10.5182 9.60192 10.655C9.66672 10.8907 9.97032 11.4355 10.0538 11.6736C10.3058 11.8459 10.5907 12.1066 10.9342 11.9474C11.2534 11.9839 11.5474 11.8853 11.8322 11.814C12.0084 11.945 12.1927 12.0084 12.4102 12.0355C12.4937 12.264 12.247 12.5722 12.582 12.7301C12.7802 12.9566 12.9084 13.2852 12.8162 13.5622C12.6082 13.7863 12.5777 14.1096 12.7757 14.3484C12.9578 14.6218 12.8285 14.9645 13.0574 15.2306C13.2062 15.3943 13.0037 15.8458 13.3598 15.8054C13.6334 15.6794 13.9754 15.8376 14.2253 15.6466C14.4468 15.4822 14.6988 15.325 14.8114 15.0842C14.9609 14.874 15.2861 14.7974 15.1992 14.4962C15.1927 14.1468 15.7685 14.2414 15.8258 13.9034C15.9878 13.5674 15.7164 13.2286 15.7891 12.8899C15.943 12.6019 16.1971 11.9251 16.4712 11.7202C16.7784 11.4288 16.931 11.0244 16.9243 10.6282C16.7208 10.4078 16.3651 10.8434 16.2122 10.6901L15.6986 10.2355L15.6996 10.235C15.6017 10.159 15.4726 9.99792 15.4594 9.9336C15.4094 9.82924 15.3489 9.73032 15.2786 9.6384C15.1922 9.52488 14.9162 9.1944 14.9594 9.23664C15.0826 9.36624 15.2191 9.51816 15.3566 9.67056C15.4944 9.82296 15.612 10.0378 15.8062 10.1914C16.26 10.6282 16.4573 10.589 16.8982 10.3008C17.0854 10.1215 17.3674 10.0097 17.4084 9.73992C17.5178 9.53688 17.382 9.33552 17.2159 9.24792C17.0311 9.21792 16.8439 9.26088 16.6375 9.21792C16.5362 9.09792 16.3656 9.00864 16.2485 8.92584C16.2432 8.91432 16.2262 8.89776 16.2046 8.8668C16.1902 8.8536 16.1916 8.85096 16.1974 8.8512C16.2029 8.85168 16.2125 8.8548 16.2142 8.8524C16.2406 8.8716 16.2562 8.88816 16.2641 8.89368L16.5684 9.06888C16.7388 9.20352 16.9565 9.17448 17.1766 9.19608C17.4814 9.21288 17.8795 9.03768 18.0886 9.33336C18.1889 9.57648 18.6235 9.54024 18.613 9.85944C18.7843 10.1926 19.0001 10.5132 19.1278 10.8595C19.2194 11.0352 19.4597 10.9615 19.4602 11.1641C19.7333 11.3882 19.8713 10.9457 19.6798 10.7875C19.5262 10.5046 19.3858 10.175 19.4887 9.86352C19.6567 9.63264 19.5684 9.29424 19.7988 9.1056C20.1574 9.13248 20.1413 9.53424 20.3251 9.72792C20.7019 9.74664 20.7082 10.1633 20.7802 10.4167C20.6998 10.6759 21.0432 10.9258 21.007 11.1314C20.832 10.8926 20.5183 11.1595 20.7389 11.3443C20.9676 11.6069 21.017 11.9443 21.1106 12.2573C21.156 12.5095 21.2935 12.7406 21.355 12.9847C21.3883 13.1575 21.523 13.2672 21.6631 13.3733C21.6859 13.3162 21.7104 13.26 21.7315 13.2022C21.7634 13.115 21.791 13.0258 21.8196 12.9372C21.7822 12.9127 21.7346 12.9014 21.6689 12.9127C21.4872 12.659 21.7214 12.3221 21.5042 12.077C21.4332 11.8286 21.5426 11.5855 21.4435 11.3436C21.4435 11.022 21.1834 10.7945 21.0595 10.5125C20.9729 10.3877 20.9561 9.94944 21.1123 10.2634C21.2035 10.3714 21.3002 10.7059 21.4068 10.6591C21.5354 10.3368 21.6403 9.97704 21.4944 9.64464C21.4906 9.39672 21.0888 9.17136 21.1128 9.00816C21.5059 8.91072 20.9374 8.49864 21.1296 8.26656C21.1932 8.08416 21.0079 7.75992 21.3007 7.88184C21.324 7.83936 21.33 7.79688 21.3302 7.75464C21.2683 7.63611 21.2031 7.51927 21.1349 7.40424C21.1205 7.38024 21.1046 7.35696 21.09 7.33296L21.0893 7.33248C21.0401 7.2804 20.9909 7.23072 20.9506 7.18536C20.7341 7.0476 20.7314 6.798 20.5666 6.62496C20.3846 6.4152 20.1814 6.21408 19.9195 6.08328C19.7707 5.98728 19.5413 5.78832 19.5854 5.6436C19.6574 5.6964 19.7628 5.75856 19.8461 5.77632L19.8202 5.74992C17.785 3.768 14.7305 2.7012 11.9472 2.7744C11.8009 2.76905 11.6544 2.76705 11.508 2.7684M10.5972 2.81904C6.86688 3.19368 3.0792 5.62008 2.1 9.2532V9.25368C2.14584 9.43896 2.24664 9.66264 2.51736 9.75048C2.68584 9.82368 2.61912 10.0582 2.80944 10.1626C3.06 10.3692 2.89488 10.6723 3.11064 10.889C3.18024 11.0393 3.26472 11.1502 3.44592 11.0558C3.75 11.1624 3.46344 11.5709 3.33768 11.7542C3.1392 11.9942 3.3276 12.2918 3.21696 12.5482C3.30144 12.8789 3.59376 13.127 3.7152 13.4462C3.8016 13.7676 4.11864 13.9092 4.39608 14.075C4.62816 14.2872 4.61928 14.6021 4.72848 14.8661C4.8192 15.138 4.88688 15.4171 5.04504 15.6658C5.19 15.9562 5.22864 16.2816 5.44776 16.5415C5.6184 16.7712 5.79 16.9992 5.93616 17.2421C6.07944 17.4098 6.27648 17.5493 6.39024 17.7346L6.48672 17.785C6.48768 17.7853 6.48848 17.7858 6.48912 17.7864C6.77376 17.8855 7.14 18.0552 7.37424 17.8267C7.4784 17.5354 7.06248 17.6602 6.93024 17.4756C6.64728 17.3417 6.86304 16.9668 6.50208 16.9123C6.59064 16.7974 6.3924 16.6812 6.46752 16.5166C6.41664 16.3738 6.31608 16.1662 6.54912 16.1143C6.68616 15.9401 6.44808 15.7178 6.69072 15.5964C6.76704 15.3142 6.89664 15.0322 6.858 14.7372C6.77616 14.3659 7.36008 14.4787 7.41888 14.1629C7.548 13.8838 7.46208 13.5826 7.51008 13.295C7.65216 13.0366 8.00616 12.7327 7.74672 12.4344C7.47168 12.2206 7.11672 12.1454 6.7932 12.0458C6.58248 11.8978 6.15672 11.9659 6.22608 11.6508C6.16824 11.3395 5.84808 11.2186 5.54976 11.1396C5.27136 11.0587 5.3484 10.7472 5.20656 10.614C4.50264 10.4568 4.5372 10.5041 4.41048 10.3733C4.21632 10.2972 4.11048 10.3661 3.93936 10.439C3.87384 10.5694 3.7212 10.6334 3.55704 10.643C3.1596 10.7242 3.3924 10.2137 3.47424 10.044C3.56232 9.83088 3.2052 9.72624 3.174 9.70464C3.28632 9.46296 3.42912 9.0288 3.81912 9.21264C3.95208 9.2712 3.92808 9.38304 3.88872 9.46296C4.25184 9.51744 4.2264 9.7704 4.45104 9.92592C4.58832 9.75984 5.12688 10.1102 4.99728 9.75336C4.75488 9.57264 4.43016 9.51216 4.23504 9.26448C4.14096 9.00216 4.61664 8.80584 4.42824 8.52552C4.34616 8.3784 4.27272 8.62104 4.34328 8.41416C4.37112 8.09496 4.70256 7.93704 5.00808 7.86792C5.25288 7.68936 5.388 7.35792 5.75496 7.34784C6.02352 7.37256 6.06312 6.95496 6.30216 7.20864C6.51576 7.19976 6.84936 7.19472 6.99312 7.01808C7.056 7.03032 7.44192 7.3128 7.55544 7.03872C7.6548 6.88368 7.48056 6.6612 7.71336 6.5628C7.79352 6.2808 7.68648 5.96976 7.932 5.72808C8.1048 5.49096 8.42688 5.42568 8.6976 5.31528C8.83584 5.2188 8.67 5.09568 8.85696 5.0088C9.02256 4.83312 9.08256 4.5276 9.3732 4.50432C9.5484 4.404 9.45672 4.54584 9.50784 4.59504C9.69792 4.84944 9.18 4.94424 9.08568 5.14944C8.8296 5.35392 8.53728 5.6268 8.60376 5.96016C8.766 6.35256 9.14304 5.95056 9.33576 5.80464C9.73656 5.67504 10.1604 5.61744 10.5658 5.50392C10.7333 5.42424 10.6414 5.2512 10.8336 5.16168C11.004 4.99368 11.029 4.73928 11.2831 4.67736C11.3422 4.362 10.9049 4.29744 10.6447 4.29168C10.5761 4.00536 10.2144 4.03416 9.97608 3.92856C10.1945 3.84144 9.71976 3.84816 9.87096 3.73896C9.72192 3.72408 9.56616 3.51984 9.42288 3.65736C9.36768 3.58512 8.832 3.65688 9.048 3.40248C9.5208 3.11928 10.1674 3.18888 10.5922 2.82816C10.595 2.82552 10.595 2.82216 10.5974 2.81928M12.5174 4.39728C12.4862 4.39584 12.4589 4.39968 12.4421 4.41072C12.3341 4.4736 12.2717 4.75128 12.4771 4.62096C12.5894 4.67592 12.853 4.68384 12.6802 4.53024C12.7346 4.45632 12.6113 4.4016 12.5177 4.39728M13.29 4.44336C13.2703 4.44512 13.2508 4.4489 13.2319 4.45464C13.0493 4.69848 13.2655 5.02632 13.5137 5.15472C13.7002 5.26248 14.0105 5.00688 13.7002 4.95192C13.4249 4.91592 13.5499 4.42296 13.2898 4.44312M12.0629 4.5612C12.0417 4.55983 12.0203 4.56064 11.9993 4.5636L11.9645 4.56216C11.6184 4.59336 11.6093 4.99152 11.9654 5.01792C12.3154 5.07984 12.3602 4.584 12.0634 4.5612H12.0629ZM9.13248 4.57656C9.13536 4.57512 9.14016 4.57656 9.14544 4.58448C9.12528 4.6152 9.12312 4.58184 9.13248 4.57656ZM8.02512 4.91328C8.14512 4.92696 8.14152 5.04264 7.98384 4.96752C7.92 4.97928 7.85472 4.93008 7.96608 4.91472C7.98848 4.91184 8.00816 4.91136 8.02512 4.91328ZM7.32912 4.92144C7.34941 4.91869 7.37006 4.92116 7.38912 4.92864C7.30512 5.11152 7.46256 5.32872 7.1796 5.42904C7.01592 5.51376 6.7248 5.88336 6.66624 5.52792C6.64704 5.2236 6.92904 4.95144 7.26864 4.92792C7.28856 4.92768 7.30872 4.92312 7.32912 4.92144ZM7.87032 5.54976C7.8672 5.70096 7.65552 5.56224 7.87032 5.54976ZM10.2737 5.65056C10.2555 5.65178 10.2378 5.65642 10.2214 5.66424C10.17 5.81064 9.77736 5.72304 10.0277 5.87784C10.1738 6.11376 10.6133 6.11904 10.8067 5.9412C10.902 5.71896 10.613 5.6184 10.4299 5.68224C10.3807 5.6676 10.3267 5.64672 10.2739 5.6508M11.2102 6.38424C11.0767 6.38856 10.9634 6.46944 10.9721 6.6276C10.8149 6.72672 10.476 6.98664 10.7194 7.12104C11.0234 7.08816 11.2162 6.99192 11.4893 6.8964L11.5255 6.76992C11.4497 6.68208 11.3959 6.57624 11.4506 6.45936C11.3809 6.40865 11.2964 6.38226 11.2102 6.38424ZM6.894 6.75096C6.90024 6.75432 6.906 6.76056 6.9132 6.76224C7.01544 6.90744 6.59472 6.84744 6.8724 6.7524C6.8808 6.74664 6.88752 6.74736 6.894 6.75096ZM15.4313 7.33872C15.4937 7.44672 15.8616 7.5696 15.768 7.64424C15.6557 7.58208 15.3898 7.39464 15.4313 7.33872ZM14.0544 7.47072C14.1686 7.75584 14.5327 7.46496 14.73 7.60992C14.849 7.6428 14.9566 7.7772 14.7461 7.71912C14.5181 7.51872 14.0213 7.9836 13.973 7.66032C13.987 7.59312 14.0244 7.53264 14.0544 7.47072ZM15.8731 7.8C15.8844 7.79905 15.8958 7.80011 15.9067 7.80312C16.1486 7.81944 16.0771 8.1024 15.8834 7.93152C15.8467 7.90176 15.8095 7.80624 15.8731 7.8ZM3.49056 7.98648L3.51792 7.99992C3.55392 8.3352 4.02936 7.93848 4.02288 8.2812C3.99096 8.47848 3.8184 8.73624 4.05096 8.90088C4.22688 9.02784 3.96792 9.05208 3.89256 8.93256C3.68448 8.82816 3.51888 9.12624 3.2772 8.99424C3.02448 8.91 2.96208 9.4656 2.75688 9.15576C2.7072 8.93832 2.87688 8.73048 2.9592 8.52864C3.08592 8.32512 3.2052 8.08824 3.45744 7.98864L3.49056 7.98648ZM21.6134 8.36712C21.4279 8.51184 21.7123 8.82912 21.731 9.02328C21.8563 9.1896 21.8923 9.32856 21.9686 9.48648C21.9607 9.45168 21.955 9.41568 21.9463 9.38088C21.861 9.03507 21.7497 8.69619 21.6134 8.36712ZM13.7695 8.4084C13.3697 8.49888 13.7947 8.55984 13.956 8.56032C14.0258 8.4348 13.8946 8.44944 13.7695 8.4084ZM3.9024 9.55512C3.71448 9.55776 3.95232 9.85104 4.12704 9.81192C4.24344 9.78456 4.16352 9.73584 4.10784 9.63312C4.08074 9.60559 4.0474 9.58501 4.01064 9.57312C3.97561 9.56197 3.93916 9.55591 3.9024 9.55512ZM22.021 9.7368C21.9437 9.95088 21.9667 10.2254 22.0646 10.4033C22.081 10.4022 22.0971 10.3978 22.1117 10.3903C22.1081 10.3459 22.1069 10.302 22.1023 10.2574C22.0816 10.0829 22.0544 9.90927 22.021 9.7368ZM16.957 10.2691C16.943 10.2703 16.9255 10.3058 16.9666 10.283C16.965 10.273 16.9618 10.2683 16.957 10.2691ZM22.1225 10.5523C21.8642 10.7527 22.061 11.1139 21.8501 11.3436C21.6389 11.5102 21.6221 11.765 21.6648 11.9971C21.7265 12.1932 21.6581 12.5618 21.9163 12.6026C21.9341 12.5359 21.9538 12.4697 21.9691 12.4022C22.1059 11.8114 22.159 11.1926 22.1225 10.5523ZM21.4807 12.0595C21.4944 12.0578 21.5107 12.0684 21.4879 12.0955C21.4558 12.0744 21.4668 12.061 21.4807 12.0595ZM16.5984 13.5386C16.5552 13.6092 16.4748 13.7659 16.368 13.6658C16.5062 13.9807 15.8143 13.914 15.9485 14.2627C15.8789 14.5111 15.5947 14.8373 15.8666 15.0576C16.2026 15.1735 16.3226 14.8426 16.429 14.6345C16.5473 14.4226 16.6661 14.2114 16.7935 14.0038C16.7662 13.8583 16.8401 13.5502 16.5984 13.5386ZM16.44 17.1269C16.1167 17.1739 16.2936 17.6146 16.5533 17.3858C16.5869 17.3011 16.565 17.1384 16.44 17.1269ZM7.33176 17.1845C6.9636 17.1924 7.31592 17.7156 7.4796 17.3818C7.51512 17.1734 7.43544 17.2421 7.33152 17.1842M14.4845 17.9402C14.1494 17.923 13.6392 18.0787 13.4249 18.0521C13.1897 18.0281 13.0195 17.9484 12.7994 18.0511C12.5354 18.036 12.2887 17.9424 12.023 17.9429C11.9851 17.9427 11.9468 17.9447 11.9081 17.9489C11.6064 18.0209 11.2961 18.017 10.9925 18.0682C10.7606 18.1738 10.8125 18.5249 10.5218 18.5621C10.4923 18.7646 10.2919 18.7997 10.1354 18.75C10.0925 18.7925 10.1172 18.8587 10.134 18.9108C11.2073 19.0644 12.3338 19.0999 13.4849 19.0224C14.2133 18.9598 14.9506 18.8054 15.6725 18.5731C15.3482 18.6036 15.0907 18.5606 14.9532 18.4063C14.9959 18.1951 14.6378 18.227 14.7434 18.0283C14.6882 17.9707 14.5963 17.946 14.4845 17.9402ZM8.37096 18.185C8.28432 18.2935 8.27736 18.4058 8.30664 18.5146C8.35248 18.5282 8.39736 18.5434 8.44344 18.5563C8.52888 18.5808 8.616 18.6022 8.7024 18.6247C8.6292 18.5777 8.58 18.5146 8.59056 18.4111C8.55768 18.1598 8.48736 18.2311 8.37096 18.185ZM9.44136 18.7668C9.4236 18.7692 9.40176 18.7774 9.38184 18.7834L9.39264 18.7858C9.46704 18.8009 9.5424 18.8131 9.61752 18.8266C9.55272 18.7774 9.49992 18.7589 9.44136 18.7668Z" fill="white"/>
</g>
<defs>
<clipPath id="clip0_49_79">
<rect width="24" height="24" fill="white"/>
</clipPath>
</defs>
</svg>
