<svg width="34" height="34" viewBox="0 0 34 34" fill="none" xmlns="http://www.w3.org/2000/svg">
<path d="M31.2109 8.89841L31.2906 8.84529C31.1313 8.5531 30.8922 8.28748 30.6531 8.15466L17.8234 0.770288C17.6109 0.637476 17.3188 0.584351 17 0.584351C16.6812 0.584351 16.3891 0.664038 16.1766 0.770288L3.42656 8.18123C2.975 8.44685 2.65625 9.11091 2.65625 9.6156V24.4109C2.65625 24.7031 2.70937 25.0219 2.89531 25.314L2.84219 25.3406C2.975 25.5531 3.16094 25.739 3.34688 25.8453L16.15 33.2562C16.3625 33.389 16.6547 33.4422 16.9734 33.4422C17.2922 33.4422 17.5844 33.3625 17.7969 33.2562L30.5469 25.8453C30.9984 25.5797 31.3172 24.9156 31.3172 24.4109V9.58904C31.3438 9.37654 31.3172 9.13748 31.2109 8.89841ZM17 27.4922C11.2094 27.4922 6.50781 22.7906 6.50781 17C6.50781 11.2094 11.2094 6.50779 17 6.50779C20.9047 6.50779 24.3047 8.65935 26.1109 11.8203L22.6578 13.8125C21.5422 11.8203 19.4172 10.4922 17 10.4922C13.4141 10.4922 10.4922 13.414 10.4922 17C10.4922 20.5859 13.4141 23.5078 17 23.5078C19.4172 23.5078 21.5422 22.1797 22.6578 20.214L26.0844 22.2328C24.2781 25.3672 20.8781 27.4922 17 27.4922ZM30.5469 16.4687H29.6969L29.4578 17.5312H30.5469V18.8594H29.2188L28.9 20.4531H27.5984L27.9172 18.8594H26.9078L26.5891 20.4531H25.3141L25.6328 18.8594H24.9688V17.5312H25.8984L26.1375 16.4687H24.9688V15.1406H26.3766L26.6953 13.5469H27.9969L27.6781 15.1406H28.6875L29.0062 13.5469H30.2812L29.9625 15.1406H30.5469V16.4687ZM27.1734 17.5312H28.1828L28.4219 16.4687H27.4125L27.1734 17.5312Z" fill="white"/>
<path d="M31.2109 8.89841L31.2906 8.84529C31.1313 8.5531 30.8922 8.28748 30.6531 8.15466L17.8234 0.770288C17.6109 0.637476 17.3188 0.584351 17 0.584351C16.6812 0.584351 16.3891 0.664038 16.1766 0.770288L3.42656 8.18123C2.975 8.44685 2.65625 9.11091 2.65625 9.6156V24.4109C2.65625 24.7031 2.70937 25.0219 2.89531 25.314L2.84219 25.3406C2.975 25.5531 3.16094 25.739 3.34688 25.8453L16.15 33.2562C16.3625 33.389 16.6547 33.4422 16.9734 33.4422C17.2922 33.4422 17.5844 33.3625 17.7969 33.2562L30.5469 25.8453C30.9984 25.5797 31.3172 24.9156 31.3172 24.4109V9.58904C31.3438 9.37654 31.3172 9.13748 31.2109 8.89841ZM17 27.4922C11.2094 27.4922 6.50781 22.7906 6.50781 17C6.50781 11.2094 11.2094 6.50779 17 6.50779C20.9047 6.50779 24.3047 8.65935 26.1109 11.8203L22.6578 13.8125C21.5422 11.8203 19.4172 10.4922 17 10.4922C13.4141 10.4922 10.4922 13.414 10.4922 17C10.4922 20.5859 13.4141 23.5078 17 23.5078C19.4172 23.5078 21.5422 22.1797 22.6578 20.214L26.0844 22.2328C24.2781 25.3672 20.8781 27.4922 17 27.4922ZM30.5469 16.4687H29.6969L29.4578 17.5312H30.5469V18.8594H29.2188L28.9 20.4531H27.5984L27.9172 18.8594H26.9078L26.5891 20.4531H25.3141L25.6328 18.8594H24.9688V17.5312H25.8984L26.1375 16.4687H24.9688V15.1406H26.3766L26.6953 13.5469H27.9969L27.6781 15.1406H28.6875L29.0062 13.5469H30.2812L29.9625 15.1406H30.5469V16.4687ZM27.1734 17.5312H28.1828L28.4219 16.4687H27.4125L27.1734 17.5312Z" fill="white"/>
</svg>
