<svg width="34" height="34" viewBox="0 0 34 34" fill="none" xmlns="http://www.w3.org/2000/svg">
<g clip-path="url(#clip0_27_25)">
<path d="M10.6278 0H14.28V1.52717H12.155V3.05433H14.28V4.5815H10.6278V0ZM15.0096 0H18.6631V1.32883H16.5381V1.59375H18.6631V4.64808H15.0096V3.25408H17.1346V2.98775H15.0096V0ZM19.3941 0H23.0449V1.32883H20.9199V1.59375H23.0449V4.64808H19.3941V3.25408H21.5191V2.98775H19.3941V0Z" fill="white"/>
<path fill-rule="evenodd" clip-rule="evenodd" d="M16.9872 34L7.14992 31.2687L4.25 6.68243H29.75L26.8515 31.2659L16.9872 34ZM9.98325 17.8118L10.2538 20.8264H20.7046L20.3547 24.7364L16.9915 25.6459H16.9887L13.6312 24.7393L13.4158 22.3352H10.3884L10.8106 27.0697L16.9872 28.7839L23.1738 27.0697L23.9275 18.6207L24.0012 17.8118L24.5452 11.7074H9.44067L9.7155 14.7234H21.2415L20.9667 17.8118H9.98325Z" fill="white"/>
</g>
<defs>
<clipPath id="clip0_27_25">
<rect width="34" height="34" fill="white"/>
</clipPath>
</defs>
</svg>
