<svg width="30" height="30" viewBox="0 0 30 30" fill="none" xmlns="http://www.w3.org/2000/svg">
<path d="M24.0875 6.6625C22.425 5.8875 20.625 5.325 18.75 5C18.7171 5.00047 18.6856 5.01395 18.6625 5.0375C18.4375 5.45 18.175 5.9875 18 6.4C16.0113 6.10019 13.9888 6.10019 12 6.4C11.825 5.975 11.5625 5.45 11.325 5.0375C11.3125 5.0125 11.275 5 11.2375 5C9.36252 5.325 7.57502 5.8875 5.90002 6.6625C5.88752 6.6625 5.87502 6.675 5.86252 6.6875C2.46252 11.775 1.52502 16.725 1.98752 21.625C1.98752 21.65 2.00002 21.675 2.02502 21.6875C4.27502 23.3375 6.43752 24.3375 8.57502 25C8.61252 25.0125 8.65002 25 8.66252 24.975C9.16252 24.2875 9.61252 23.5625 10 22.8C10.025 22.75 10 22.7 9.95002 22.6875C9.23752 22.4125 8.56252 22.0875 7.90002 21.7125C7.85002 21.6875 7.85002 21.6125 7.88752 21.575C8.02502 21.475 8.16252 21.3625 8.30002 21.2625C8.32502 21.2375 8.36252 21.2375 8.38752 21.25C12.6875 23.2125 17.325 23.2125 21.575 21.25C21.6 21.2375 21.6375 21.2375 21.6625 21.2625C21.8 21.375 21.9375 21.475 22.075 21.5875C22.125 21.625 22.125 21.7 22.0625 21.725C21.4125 22.1125 20.725 22.425 20.0125 22.7C19.9625 22.7125 19.95 22.775 19.9625 22.8125C20.3625 23.575 20.8125 24.3 21.3 24.9875C21.3375 25 21.375 25.0125 21.4125 25C23.5625 24.3375 25.725 23.3375 27.975 21.6875C28 21.675 28.0125 21.65 28.0125 21.625C28.5625 15.9625 27.1 11.05 24.1375 6.6875C24.125 6.675 24.1125 6.6625 24.0875 6.6625ZM10.65 18.6375C9.36253 18.6375 8.28752 17.45 8.28752 15.9875C8.28752 14.525 9.33753 13.3375 10.65 13.3375C11.975 13.3375 13.025 14.5375 13.0125 15.9875C13.0125 17.45 11.9625 18.6375 10.65 18.6375ZM19.3625 18.6375C18.075 18.6375 17 17.45 17 15.9875C17 14.525 18.05 13.3375 19.3625 13.3375C20.6875 13.3375 21.7375 14.5375 21.725 15.9875C21.725 17.45 20.6875 18.6375 19.3625 18.6375Z" fill="white"/>
</svg>
