<svg width="34" height="34" viewBox="0 0 34 34" fill="none" xmlns="http://www.w3.org/2000/svg">
<g clip-path="url(#clip0_27_28)">
<mask id="mask0_27_28" style="mask-type:luminance" maskUnits="userSpaceOnUse" x="0" y="0" width="34" height="34">
<path d="M0 0H34V34H0V0Z" fill="white"/>
</mask>
<g mask="url(#mask0_27_28)">
<path d="M7.19666 0H8.72949V1.51442H10.132V0H11.6648V4.58433H10.132V3.05008H8.72949V4.58433H7.19807L7.19666 0ZM13.6793 1.52008H12.3307V0H16.5622V1.52008H15.2122V4.58433H13.6793V1.52008ZM17.2337 0H18.8317L19.8149 1.61075L20.7967 0H22.3947V4.58433H20.8689V2.312L19.8149 3.94258H19.788L18.7326 2.31342V4.58433H17.2337V0ZM23.1568 0H24.6911V3.06992H26.8444V4.58575H23.1568V0Z" fill="white"/>
<path fill-rule="evenodd" clip-rule="evenodd" d="M7.1485 31.2687L4.25 6.68243H29.75L26.8501 31.2659L16.9858 34L7.1485 31.2687ZM13.0092 17.8103L12.7344 14.722H24.2732L24.5423 11.7074H9.44067L10.2538 20.8264H20.7046L20.3547 24.7364L16.9915 25.6459H16.9887L13.6312 24.7393L13.4158 22.3352H10.387L10.8092 27.0697L16.9858 28.7839L23.1724 27.0697L23.9261 18.6207L23.9998 17.8118L13.0092 17.8103Z" fill="white"/>
</g>
</g>
<defs>
<clipPath id="clip0_27_28">
<rect width="34" height="34" fill="white"/>
</clipPath>
</defs>
</svg>
