<svg width="34" height="34" viewBox="0 0 34 34" fill="none" xmlns="http://www.w3.org/2000/svg">
<path d="M2.125 2.125V31.875H31.875V2.125H2.125ZM18.3154 25.3268C18.3154 28.2221 16.6154 29.5439 14.1387 29.5439C11.9011 29.5439 10.6059 28.3889 9.94181 26.9875L12.2198 25.6126C12.6586 26.3893 13.0571 27.047 14.0197 27.047C14.9356 27.047 15.5199 26.6879 15.5199 25.2875V15.7845H18.3154V25.3268ZM24.9284 29.5439C22.3316 29.5439 20.6518 28.3093 19.8347 26.6879L22.1128 25.3736C22.7109 26.35 23.494 27.0736 24.8689 27.0736C26.0238 27.0736 26.7686 26.4956 26.7686 25.6923C26.7686 24.7361 26.0111 24.3971 24.7297 23.8329L24.0327 23.5344C22.0139 22.678 20.6794 21.5953 20.6794 19.3173C20.6794 17.2189 22.2796 15.6251 24.7701 15.6251C26.5497 15.6251 27.8248 16.2424 28.7417 17.8628L26.5636 19.2578C26.0854 18.4014 25.5669 18.0625 24.7637 18.0625C23.9477 18.0625 23.4292 18.581 23.4292 19.2578C23.4292 20.0951 23.9477 20.4329 25.1494 20.9578L25.8464 21.2564C28.2243 22.2721 29.5587 23.3155 29.5587 25.6519C29.5587 28.1626 27.5793 29.5428 24.9294 29.5428L24.9284 29.5439Z" fill="white"/>
</svg>
