<svg width="34" height="34" viewBox="0 0 34 34" fill="none" xmlns="http://www.w3.org/2000/svg">
<path d="M17 14.3225C18.4591 14.3225 19.6491 15.5125 19.6491 17C19.6491 18.4167 18.4591 19.6208 17 19.6208C15.5408 19.6208 14.3508 18.4167 14.3508 17C14.3508 15.5125 15.5408 14.3225 17 14.3225ZM10.4408 28.3333C11.3333 28.8717 13.2883 28.05 15.5408 25.925C14.8041 25.0891 14.0816 24.1825 13.4016 23.2333C12.2601 23.1233 11.1252 22.953 10.0016 22.7233C9.27915 25.755 9.54831 27.8375 10.4408 28.3333ZM11.4466 20.2017L11.0358 19.4792C10.88 19.89 10.7241 20.3008 10.625 20.6975C11.0075 20.7825 11.4325 20.8533 11.8716 20.9242L11.4466 20.2017ZM20.7116 19.125L21.8591 17L20.7116 14.875C20.2866 14.1242 19.8333 13.4583 19.4225 12.7925C18.6575 12.75 17.85 12.75 17 12.75C16.15 12.75 15.3425 12.75 14.5775 12.7925C14.1666 13.4583 13.7133 14.1242 13.2883 14.875L12.1408 17L13.2883 19.125C13.7133 19.8758 14.1666 20.5417 14.5775 21.2075C15.3425 21.25 16.15 21.25 17 21.25C17.85 21.25 18.6575 21.25 19.4225 21.2075C19.8333 20.5417 20.2866 19.8758 20.7116 19.125ZM17 9.60498C16.7308 9.91665 16.4475 10.2425 16.1641 10.625H17.8358C17.5525 10.2425 17.2691 9.91665 17 9.60498ZM17 24.395C17.2691 24.0833 17.5525 23.7575 17.8358 23.375H16.1641C16.4475 23.7575 16.7308 24.0833 17 24.395ZM23.545 5.66665C22.6666 5.12832 20.7116 5.94998 18.4591 8.07498C19.1958 8.91082 19.9183 9.81748 20.5983 10.7667C21.76 10.88 22.9075 11.05 23.9983 11.2767C24.7208 8.24498 24.4516 6.16248 23.545 5.66665ZM22.5533 13.7983L22.9641 14.5208C23.12 14.11 23.2758 13.6992 23.375 13.3025C22.9925 13.2175 22.5675 13.1467 22.1283 13.0758L22.5533 13.7983ZM24.6075 3.81082C26.69 5.00082 26.9166 8.13165 26.0383 11.7867C29.6366 12.8492 32.2291 14.6058 32.2291 17C32.2291 19.3942 29.6366 21.1508 26.0383 22.2133C26.9166 25.8683 26.69 28.9991 24.6075 30.1891C22.5391 31.3791 19.72 30.0192 17 27.4267C14.28 30.0192 11.4608 31.3791 9.37831 30.1891C7.30998 28.9991 7.08331 25.8683 7.96165 22.2133C4.36331 21.1508 1.77081 19.3942 1.77081 17C1.77081 14.6058 4.36331 12.8492 7.96165 11.7867C7.08331 8.13165 7.30998 5.00082 9.37831 3.81082C11.4608 2.62082 14.28 3.98082 17 6.57332C19.72 3.98082 22.5391 2.62082 24.6075 3.81082ZM24.1966 17C24.6783 18.0625 25.1033 19.125 25.4575 20.2017C28.4325 19.3092 30.1041 18.0342 30.1041 17C30.1041 15.9658 28.4325 14.6908 25.4575 13.7983C25.1033 14.875 24.6783 15.9375 24.1966 17ZM9.80331 17C9.32165 15.9375 8.89665 14.875 8.54248 13.7983C5.56748 14.6908 3.89581 15.9658 3.89581 17C3.89581 18.0342 5.56748 19.3092 8.54248 20.2017C8.89665 19.125 9.32165 18.0625 9.80331 17ZM22.5533 20.2017L22.1283 20.9242C22.5675 20.8533 22.9925 20.7825 23.375 20.6975C23.2758 20.3008 23.12 19.89 22.9641 19.4792L22.5533 20.2017ZM18.4591 25.925C20.7116 28.05 22.6666 28.8717 23.545 28.3333C24.4516 27.8375 24.7208 25.755 23.9983 22.7233C22.9075 22.95 21.76 23.12 20.5983 23.2333C19.9183 24.1825 19.1958 25.0891 18.4591 25.925ZM11.4466 13.7983L11.8716 13.0758C11.4325 13.1467 11.0075 13.2175 10.625 13.3025C10.7241 13.6992 10.88 14.11 11.0358 14.5208L11.4466 13.7983ZM15.5408 8.07498C13.2883 5.94998 11.3333 5.12832 10.4408 5.66665C9.54831 6.16248 9.27915 8.24498 10.0016 11.2767C11.1252 11.0469 12.2601 10.8767 13.4016 10.7667C14.0816 9.81748 14.8041 8.91082 15.5408 8.07498Z" fill="white"/>
</svg>
